<mxfile host="Electron" agent="Mozilla/5.0 (Windows NT 10.0; Win64; x64) AppleWebKit/537.36 (KHTML, like Gecko) draw.io/27.0.5 Chrome/134.0.6998.205 Electron/35.3.0 Safari/537.36" version="27.0.5">
  <diagram name="Page-1" id="g_Lv8jZSX6gFYiFya9J3">
    <mxGraphModel dx="1106" dy="661" grid="1" gridSize="10" guides="1" tooltips="1" connect="1" arrows="1" fold="1" page="1" pageScale="1" pageWidth="850" pageHeight="1100" math="0" shadow="0">
      <root>
        <mxCell id="0" />
        <mxCell id="1" parent="0" />
        <mxCell id="m9Ca-CXw5HTYYA-X3J3G-1" value="Clientes : Pedido" style="swimlane;fontStyle=1;align=center;verticalAlign=top;childLayout=stackLayout;horizontal=1;startSize=26;horizontalStack=0;resizeParent=1;resizeParentMax=0;resizeLast=0;collapsible=1;marginBottom=0;whiteSpace=wrap;html=1;" vertex="1" parent="1">
          <mxGeometry x="65" y="90" width="160" height="140" as="geometry" />
        </mxCell>
        <mxCell id="m9Ca-CXw5HTYYA-X3J3G-2" value="+ nombreUsuario: string&lt;div&gt;+ numeroPedido: string&lt;/div&gt;&lt;div&gt;+Profucto&lt;/div&gt;&lt;div&gt;+direccionUsuario: string&amp;nbsp;&lt;/div&gt;" style="text;strokeColor=none;fillColor=none;align=left;verticalAlign=top;spacingLeft=4;spacingRight=4;overflow=hidden;rotatable=0;points=[[0,0.5],[1,0.5]];portConstraint=eastwest;whiteSpace=wrap;html=1;" vertex="1" parent="m9Ca-CXw5HTYYA-X3J3G-1">
          <mxGeometry y="26" width="160" height="64" as="geometry" />
        </mxCell>
        <mxCell id="m9Ca-CXw5HTYYA-X3J3G-3" value="" style="line;strokeWidth=1;fillColor=none;align=left;verticalAlign=middle;spacingTop=-1;spacingLeft=3;spacingRight=3;rotatable=0;labelPosition=right;points=[];portConstraint=eastwest;strokeColor=inherit;" vertex="1" parent="m9Ca-CXw5HTYYA-X3J3G-1">
          <mxGeometry y="90" width="160" height="8" as="geometry" />
        </mxCell>
        <mxCell id="m9Ca-CXw5HTYYA-X3J3G-4" value="+ Estado_Pedido: String&lt;div&gt;+ Mostrar_Pedido: string&lt;/div&gt;" style="text;strokeColor=none;fillColor=none;align=left;verticalAlign=top;spacingLeft=4;spacingRight=4;overflow=hidden;rotatable=0;points=[[0,0.5],[1,0.5]];portConstraint=eastwest;whiteSpace=wrap;html=1;" vertex="1" parent="m9Ca-CXw5HTYYA-X3J3G-1">
          <mxGeometry y="98" width="160" height="42" as="geometry" />
        </mxCell>
        <mxCell id="m9Ca-CXw5HTYYA-X3J3G-5" value="Pedido : Menu" style="swimlane;fontStyle=1;align=center;verticalAlign=top;childLayout=stackLayout;horizontal=1;startSize=26;horizontalStack=0;resizeParent=1;resizeParentMax=0;resizeLast=0;collapsible=1;marginBottom=0;whiteSpace=wrap;html=1;" vertex="1" parent="1">
          <mxGeometry x="350" y="90" width="160" height="174" as="geometry" />
        </mxCell>
        <mxCell id="m9Ca-CXw5HTYYA-X3J3G-6" value="+ nombreUsuario: string&lt;div&gt;+ numeroPedido: string&lt;/div&gt;&lt;div&gt;+Profucto&lt;/div&gt;&lt;div&gt;+direccionUsuario: string&amp;nbsp;&lt;/div&gt;&lt;div&gt;+NombreRestaurante&lt;/div&gt;&lt;div&gt;+horaLlegada:String&lt;/div&gt;&lt;div&gt;+DirreccionEstablecimiento&lt;/div&gt;" style="text;strokeColor=none;fillColor=none;align=left;verticalAlign=top;spacingLeft=4;spacingRight=4;overflow=hidden;rotatable=0;points=[[0,0.5],[1,0.5]];portConstraint=eastwest;whiteSpace=wrap;html=1;" vertex="1" parent="m9Ca-CXw5HTYYA-X3J3G-5">
          <mxGeometry y="26" width="160" height="114" as="geometry" />
        </mxCell>
        <mxCell id="m9Ca-CXw5HTYYA-X3J3G-7" value="" style="line;strokeWidth=1;fillColor=none;align=left;verticalAlign=middle;spacingTop=-1;spacingLeft=3;spacingRight=3;rotatable=0;labelPosition=right;points=[];portConstraint=eastwest;strokeColor=inherit;" vertex="1" parent="m9Ca-CXw5HTYYA-X3J3G-5">
          <mxGeometry y="140" width="160" height="8" as="geometry" />
        </mxCell>
        <mxCell id="m9Ca-CXw5HTYYA-X3J3G-8" value="+Tomar_Pedido:string,int" style="text;strokeColor=none;fillColor=none;align=left;verticalAlign=top;spacingLeft=4;spacingRight=4;overflow=hidden;rotatable=0;points=[[0,0.5],[1,0.5]];portConstraint=eastwest;whiteSpace=wrap;html=1;" vertex="1" parent="m9Ca-CXw5HTYYA-X3J3G-5">
          <mxGeometry y="148" width="160" height="26" as="geometry" />
        </mxCell>
        <mxCell id="m9Ca-CXw5HTYYA-X3J3G-38" value="" style="edgeStyle=orthogonalEdgeStyle;rounded=0;orthogonalLoop=1;jettySize=auto;html=1;" edge="1" parent="1" source="m9Ca-CXw5HTYYA-X3J3G-9" target="m9Ca-CXw5HTYYA-X3J3G-8">
          <mxGeometry relative="1" as="geometry" />
        </mxCell>
        <mxCell id="m9Ca-CXw5HTYYA-X3J3G-9" value="Menu" style="swimlane;fontStyle=1;align=center;verticalAlign=top;childLayout=stackLayout;horizontal=1;startSize=26;horizontalStack=0;resizeParent=1;resizeParentMax=0;resizeLast=0;collapsible=1;marginBottom=0;whiteSpace=wrap;html=1;" vertex="1" parent="1">
          <mxGeometry x="350" y="320" width="160" height="124" as="geometry" />
        </mxCell>
        <mxCell id="m9Ca-CXw5HTYYA-X3J3G-10" value="+ productos.array&lt;div&gt;+ Precio: Int&lt;/div&gt;&lt;div&gt;-Horario: string&amp;nbsp;&lt;/div&gt;" style="text;strokeColor=none;fillColor=none;align=left;verticalAlign=top;spacingLeft=4;spacingRight=4;overflow=hidden;rotatable=0;points=[[0,0.5],[1,0.5]];portConstraint=eastwest;whiteSpace=wrap;html=1;" vertex="1" parent="m9Ca-CXw5HTYYA-X3J3G-9">
          <mxGeometry y="26" width="160" height="64" as="geometry" />
        </mxCell>
        <mxCell id="m9Ca-CXw5HTYYA-X3J3G-11" value="" style="line;strokeWidth=1;fillColor=none;align=left;verticalAlign=middle;spacingTop=-1;spacingLeft=3;spacingRight=3;rotatable=0;labelPosition=right;points=[];portConstraint=eastwest;strokeColor=inherit;" vertex="1" parent="m9Ca-CXw5HTYYA-X3J3G-9">
          <mxGeometry y="90" width="160" height="8" as="geometry" />
        </mxCell>
        <mxCell id="m9Ca-CXw5HTYYA-X3J3G-12" value="+ mostrarProductos: String" style="text;strokeColor=none;fillColor=none;align=left;verticalAlign=top;spacingLeft=4;spacingRight=4;overflow=hidden;rotatable=0;points=[[0,0.5],[1,0.5]];portConstraint=eastwest;whiteSpace=wrap;html=1;" vertex="1" parent="m9Ca-CXw5HTYYA-X3J3G-9">
          <mxGeometry y="98" width="160" height="26" as="geometry" />
        </mxCell>
        <mxCell id="m9Ca-CXw5HTYYA-X3J3G-27" style="edgeStyle=orthogonalEdgeStyle;rounded=0;orthogonalLoop=1;jettySize=auto;html=1;exitX=0.5;exitY=0;exitDx=0;exitDy=0;" edge="1" parent="1" source="m9Ca-CXw5HTYYA-X3J3G-17" target="m9Ca-CXw5HTYYA-X3J3G-8">
          <mxGeometry relative="1" as="geometry">
            <mxPoint x="420" y="210" as="targetPoint" />
          </mxGeometry>
        </mxCell>
        <mxCell id="m9Ca-CXw5HTYYA-X3J3G-17" value="Productos" style="swimlane;fontStyle=1;align=center;verticalAlign=top;childLayout=stackLayout;horizontal=1;startSize=26;horizontalStack=0;resizeParent=1;resizeParentMax=0;resizeLast=0;collapsible=1;marginBottom=0;whiteSpace=wrap;html=1;" vertex="1" parent="1">
          <mxGeometry x="30" y="310" width="160" height="98" as="geometry" />
        </mxCell>
        <mxCell id="m9Ca-CXw5HTYYA-X3J3G-18" value="+ Producto: string.array&lt;div&gt;+ Precio: int&lt;/div&gt;&lt;div&gt;+Cantidad: int&lt;/div&gt;" style="text;strokeColor=none;fillColor=none;align=left;verticalAlign=top;spacingLeft=4;spacingRight=4;overflow=hidden;rotatable=0;points=[[0,0.5],[1,0.5]];portConstraint=eastwest;whiteSpace=wrap;html=1;" vertex="1" parent="m9Ca-CXw5HTYYA-X3J3G-17">
          <mxGeometry y="26" width="160" height="64" as="geometry" />
        </mxCell>
        <mxCell id="m9Ca-CXw5HTYYA-X3J3G-19" value="" style="line;strokeWidth=1;fillColor=none;align=left;verticalAlign=middle;spacingTop=-1;spacingLeft=3;spacingRight=3;rotatable=0;labelPosition=right;points=[];portConstraint=eastwest;strokeColor=inherit;" vertex="1" parent="m9Ca-CXw5HTYYA-X3J3G-17">
          <mxGeometry y="90" width="160" height="8" as="geometry" />
        </mxCell>
        <mxCell id="m9Ca-CXw5HTYYA-X3J3G-21" style="edgeStyle=orthogonalEdgeStyle;rounded=0;orthogonalLoop=1;jettySize=auto;html=1;" edge="1" parent="1" source="m9Ca-CXw5HTYYA-X3J3G-2" target="m9Ca-CXw5HTYYA-X3J3G-6">
          <mxGeometry relative="1" as="geometry" />
        </mxCell>
        <mxCell id="m9Ca-CXw5HTYYA-X3J3G-28" style="edgeStyle=orthogonalEdgeStyle;rounded=0;orthogonalLoop=1;jettySize=auto;html=1;entryX=1;entryY=0.5;entryDx=0;entryDy=0;" edge="1" parent="1" source="m9Ca-CXw5HTYYA-X3J3G-18" target="m9Ca-CXw5HTYYA-X3J3G-4">
          <mxGeometry relative="1" as="geometry" />
        </mxCell>
        <mxCell id="m9Ca-CXw5HTYYA-X3J3G-29" style="edgeStyle=orthogonalEdgeStyle;rounded=0;orthogonalLoop=1;jettySize=auto;html=1;exitX=0;exitY=0.5;exitDx=0;exitDy=0;entryX=1.006;entryY=0.656;entryDx=0;entryDy=0;entryPerimeter=0;" edge="1" parent="1" source="m9Ca-CXw5HTYYA-X3J3G-10" target="m9Ca-CXw5HTYYA-X3J3G-18">
          <mxGeometry relative="1" as="geometry" />
        </mxCell>
        <mxCell id="m9Ca-CXw5HTYYA-X3J3G-30" value="Restaurante" style="swimlane;fontStyle=1;align=center;verticalAlign=top;childLayout=stackLayout;horizontal=1;startSize=26;horizontalStack=0;resizeParent=1;resizeParentMax=0;resizeLast=0;collapsible=1;marginBottom=0;whiteSpace=wrap;html=1;" vertex="1" parent="1">
          <mxGeometry x="600" y="95" width="160" height="164" as="geometry" />
        </mxCell>
        <mxCell id="m9Ca-CXw5HTYYA-X3J3G-31" value="+ Lugar: string&lt;div&gt;+NombreRestautante:String&lt;br&gt;&lt;div&gt;+DirrecionEstablecimiento: string&lt;/div&gt;&lt;div&gt;-Telefono: strin&lt;span style=&quot;background-color: transparent; color: light-dark(rgb(0, 0, 0), rgb(255, 255, 255));&quot;&gt;g&lt;/span&gt;&lt;/div&gt;&lt;div&gt;&lt;span style=&quot;background-color: transparent; color: light-dark(rgb(0, 0, 0), rgb(255, 255, 255));&quot;&gt;-correo: string&lt;/span&gt;&lt;/div&gt;&lt;/div&gt;&lt;div&gt;&lt;span style=&quot;background-color: transparent; color: light-dark(rgb(0, 0, 0), rgb(255, 255, 255));&quot;&gt;-Trabajadoes: String.Array&lt;/span&gt;&lt;/div&gt;" style="text;strokeColor=none;fillColor=none;align=left;verticalAlign=top;spacingLeft=4;spacingRight=4;overflow=hidden;rotatable=0;points=[[0,0.5],[1,0.5]];portConstraint=eastwest;whiteSpace=wrap;html=1;" vertex="1" parent="m9Ca-CXw5HTYYA-X3J3G-30">
          <mxGeometry y="26" width="160" height="104" as="geometry" />
        </mxCell>
        <mxCell id="m9Ca-CXw5HTYYA-X3J3G-32" value="" style="line;strokeWidth=1;fillColor=none;align=left;verticalAlign=middle;spacingTop=-1;spacingLeft=3;spacingRight=3;rotatable=0;labelPosition=right;points=[];portConstraint=eastwest;strokeColor=inherit;" vertex="1" parent="m9Ca-CXw5HTYYA-X3J3G-30">
          <mxGeometry y="130" width="160" height="8" as="geometry" />
        </mxCell>
        <mxCell id="m9Ca-CXw5HTYYA-X3J3G-33" value="+ Mostrar_Menu: string" style="text;strokeColor=none;fillColor=none;align=left;verticalAlign=top;spacingLeft=4;spacingRight=4;overflow=hidden;rotatable=0;points=[[0,0.5],[1,0.5]];portConstraint=eastwest;whiteSpace=wrap;html=1;" vertex="1" parent="m9Ca-CXw5HTYYA-X3J3G-30">
          <mxGeometry y="138" width="160" height="26" as="geometry" />
        </mxCell>
        <mxCell id="m9Ca-CXw5HTYYA-X3J3G-37" style="edgeStyle=orthogonalEdgeStyle;rounded=0;orthogonalLoop=1;jettySize=auto;html=1;entryX=0.831;entryY=1.038;entryDx=0;entryDy=0;entryPerimeter=0;" edge="1" parent="1" source="m9Ca-CXw5HTYYA-X3J3G-10" target="m9Ca-CXw5HTYYA-X3J3G-33">
          <mxGeometry relative="1" as="geometry" />
        </mxCell>
        <mxCell id="m9Ca-CXw5HTYYA-X3J3G-40" value="" style="edgeStyle=orthogonalEdgeStyle;rounded=0;orthogonalLoop=1;jettySize=auto;html=1;" edge="1" parent="1" source="m9Ca-CXw5HTYYA-X3J3G-31" target="m9Ca-CXw5HTYYA-X3J3G-6">
          <mxGeometry relative="1" as="geometry" />
        </mxCell>
      </root>
    </mxGraphModel>
  </diagram>
</mxfile>
